<svg width="20" height="20" viewBox="0 0 20 20" fill="none" xmlns="http://www.w3.org/2000/svg">
<path d="M1.43419 18.5656C1.49223 18.6237 1.56116 18.6698 1.63704 18.7012C1.71291 18.7327 1.79424 18.7489 1.87637 18.7489C1.95851 18.7489 2.03984 18.7327 2.11571 18.7012C2.19159 18.6698 2.26052 18.6237 2.31856 18.5656L9.99981 10.8843L17.6842 18.5656C17.8015 18.6829 17.9605 18.7487 18.1264 18.7487C18.2922 18.7487 18.4513 18.6829 18.5686 18.5656C18.6858 18.4483 18.7517 18.2892 18.7517 18.1234C18.7517 17.9575 18.6858 17.7985 18.5686 17.6812L10.8842 9.99996L18.5654 2.31558C18.6827 2.19831 18.7486 2.03925 18.7486 1.87339C18.7486 1.70754 18.6827 1.54848 18.5654 1.43121C18.4482 1.31393 18.2891 1.24805 18.1232 1.24805C17.9574 1.24805 17.7983 1.31393 17.6811 1.43121L9.99981 9.11558L2.31544 1.43433C2.19587 1.33194 2.04208 1.27844 1.88478 1.28451C1.72748 1.29059 1.57827 1.3558 1.46696 1.4671C1.35565 1.57841 1.29044 1.72763 1.28437 1.88492C1.27829 2.04222 1.3318 2.19602 1.43419 2.31558L9.11544 9.99996L1.43419 17.6843C1.31778 17.8014 1.25244 17.9598 1.25244 18.125C1.25244 18.2901 1.31778 18.4485 1.43419 18.5656Z" fill="#404040"/>
</svg>
