
        <svg xmlns="http://www.w3.org/2000/svg" xmlns:xlink="http://www.w3.org/1999/xlink" version="1.1" width="3148.749154834348" height="862.7450980392158" viewBox="0 0 3148.749154834348 862.7450980392158">
			
			<g transform="scale(7.4374577417173775) translate(10, 10)">
				<defs id="SvgjsDefs10299"/><g id="SvgjsG10300" featureKey="symbolGroupContainer" transform="matrix(1,0,0,1,0,0)" fill="#000">    <path xmlns="http://www.w3.org/2000/svg" fill-rule="nonzero" d="             M0,0             H97             V96             H0,0             z             M4,4             v88             h89             v-88             z     "/></g><g id="SvgjsG10301" featureKey="symbolFeature-0" transform="matrix(1.1784511784511784,0,0,1.1784511784511784,11.107744107744107,11.643097643097644)" fill="#000"><g xmlns="http://www.w3.org/2000/svg"><circle cx="17" cy="28" r="2"/><path d="M53,22H11V34H53ZM17,32a4,4,0,1,1,4-4A4,4,0,0,1,17,32Zm10,0a4,4,0,1,1,4-4A4,4,0,0,1,27,32Zm10,0a4,4,0,1,1,4-4A4,4,0,0,1,37,32Zm10,0a4,4,0,1,1,4-4A4,4,0,0,1,47,32Z"/><circle cx="47" cy="28" r="2"/><rect x="15" y="13" width="10" height="3"/><circle cx="27" cy="28" r="2"/><path d="M29,19a1,1,0,0,0-1-1H12a1,1,0,0,0-1,1v1H29Z"/><path d="M42,16h4a3,3,0,0,0,3-3V8H39v5A3,3,0,0,0,42,16Z"/><polygon points="25 8 22 8 18 8 15 8 15 11 25 11 25 8"/><rect x="51" y="8" width="2" height="2"/><rect x="19" y="4" width="2" height="2"/><path d="M53,19a1,1,0,0,0-1-1H36a1,1,0,0,0-1,1v1H53Z"/><circle cx="37" cy="28" r="2"/><path d="M12,60H53V40H12Zm13-2H23V56h2Zm0-6H23V50h2Zm4,3H27V53h2Zm4,3H31V56h2Zm0-6H31V50h2Zm4,3H35V53h2Zm4,3H39V56h2Zm0-6H39V50h2ZM18,42H46v2H18Z"/><rect x="55" y="8" width="4" height="2"/><path d="M55,35a1,1,0,0,1-1,1H10a1,1,0,0,1-1-1V22H5V60h5V39a1,1,0,0,1,1-1H54a1,1,0,0,1,1,1V60h4V22H55Z"/><rect x="39" y="2" width="2" height="2"/><rect x="43" y="2" width="2" height="2"/><rect x="47" y="2" width="2" height="2"/></g></g><g id="SvgjsG10302" featureKey="nameFeature-0" transform="matrix(1.209510234024643,0,0,1.209510234024643,115.0647835967236,18.356312016845063)" fill="#000"><path d="M1.6 40 l0 -31.2 l15.52 0 c3.24 0 5.76 0.8 7.52 2.4 c1.72 1.6 2.6 3.72 2.6 6.4 c0 3.04 -1.28 5.28 -3.8 6.68 c2.52 1.44 3.8 3.88 3.8 6.92 c0 2.68 -0.88 4.8 -2.6 6.4 c-1.76 1.64 -4.28 2.4 -7.52 2.4 l-15.52 0 z M9.6 21.32 l6.6 0 c1.96 0 2.96 -0.88 2.96 -2.56 c0 -0.76 -0.2 -1.4 -0.64 -1.88 c-0.44 -0.44 -1.04 -0.64 -1.88 -0.64 l-7.04 0 l0 5.08 z M9.6 32.56 l7.04 0 c0.84 0 1.44 -0.2 1.88 -0.64 c0.44 -0.48 0.64 -1.08 0.64 -1.88 c0 -1.68 -1 -2.56 -2.96 -2.56 l-6.6 0 l0 5.08 z M30.44 28.32 c0 6.28 5.32 11.68 12.08 11.68 c2.04 0 3.96 -0.44 5.72 -1.32 l0 1.32 l6.36 0 l-0.04 -23.12 l-6.48 0 l0 1.04 c-1.72 -0.84 -3.6 -1.24 -5.56 -1.24 c-6.76 0 -12.08 5.4 -12.08 11.64 z M46.519999999999996 32.28 c-1.08 1.04 -2.4 1.64 -4 1.64 c-3.16 0 -5.6 -2.64 -5.6 -5.6 c0 -2.92 2.44 -5.56 5.6 -5.56 c1.6 0 2.92 0.56 4 1.6 c0.68 0.68 1.56 2.12 1.56 2.96 l0 2.04 c0 0.84 -0.88 2.2 -1.56 2.92 z M61.400000000000006 36.48 c2.32 2.2 5.08 3.44 8.4 3.44 c6.16 0 11.24 -4.4 11.96 -10.08 l0.04 -0.44 l-6.52 0 l-0.08 0.32 c-0.56 2.44 -2.72 4.08 -5.4 4.08 c-3.2 0 -5.52 -2.52 -5.52 -5.52 c0 -2.96 2.32 -5.48 5.52 -5.48 c2.4 0 4.36 1.28 5.2 3.36 l0.08 0.24 l6.64 0 l-0.08 -0.44 c-1 -5.32 -6.12 -9.28 -11.84 -9.28 c-6.68 0 -12 5.44 -12 11.6 c0 3.2 1.2 5.96 3.6 8.2 z  M85 40.04 l6.48 0 l0 -6.8 l1.04 -1.16 l5.84 7.92 l7.92 0 l-9.4 -12.68 l9.88 -10.52 l-8.24 0 l-7.12 7.72 l0 -15.72 l-6.36 0 z M108.68 9.16 c0 10 -0.04 20.48 -0.04 30.48 l0 0.36 l6.48 0 l0 -11.84 c0 -2.88 2.52 -5.4 5.6 -5.4 c2.96 0 5.28 2.28 5.6 5 c0.04 0.4 0 0.84 0 1.24 l0.04 2.92 l0 8 l6.48 0.08 l0 -12.04 c0 -2.92 -1.48 -5.8 -3.6 -7.84 c-2.32 -2.24 -5.16 -3.44 -8.52 -3.44 c-2 0 -3.92 0.44 -5.68 1.32 l0 -9.2 l-6.36 0 l0 0.36 z M136.04 28.36 c0 6.2 5.24 11.56 11.96 11.56 c6.68 0 11.92 -5.36 11.92 -11.56 c0 -6.16 -5.24 -11.52 -11.92 -11.52 c-6.72 0 -11.96 5.36 -11.96 11.52 z M153.51999999999998 28.36 c0 3 -2.32 5.52 -5.52 5.52 s-5.56 -2.56 -5.56 -5.52 c0 -2.92 2.36 -5.48 5.56 -5.48 s5.52 2.52 5.52 5.48 z M165.4 36.72 c2.28 2.44 5.36 3.28 8.72 3.28 c1.8 0 3.68 -0.28 5.36 -1 l0 1 l6.48 0 l0 -23.2 l-7.12 0 l0 11.2 c0 3.12 -1.32 5.16 -4.72 5.16 c-3.44 0 -4.68 -2.08 -4.68 -5.16 l0 -11.2 l-7.16 0 l0 11.56 c0 3.08 0.88 6 3.12 8.36 z M189.2 32.96 c0 5.6 7.08 7.04 11.4 7.04 c4.28 0 10.68 -1.4 10.68 -6.8 c0 -1.64 -0.48 -2.44 -1.44 -3.64 c-0.8 -1.04 -2 -1.8 -3.12 -2.36 c-0.84 -0.44 -1.76 -0.8 -2.68 -1.08 c-0.92 -0.32 -1.84 -0.56 -2.72 -0.88 c-0.48 -0.16 -1.08 -0.32 -1.72 -0.56 c-0.6 -0.2 -1.2 -0.4 -1.56 -0.6 c-0.2 -0.12 -0.4 -0.24 -0.56 -0.36 s-0.2 -0.24 -0.2 -0.36 c0 -0.32 0.32 -0.6 0.96 -0.84 c0.64 -0.2 1.36 -0.28 1.8 -0.28 c0.68 0 1.6 0.16 2.36 0.48 c0.76 0.36 1.24 0.84 1.24 1.48 l0 1.04 l7.28 -0.04 l0 -1.12 c0 -2.36 -1.28 -4.08 -3.2 -5.36 c-2.36 -1.52 -5.04 -2 -7.8 -2 c-4.32 0 -10.52 1.8 -10.52 7.08 c0 0.92 0.24 1.8 0.72 2.6 c0.4 0.64 0.92 1.36 1.56 1.88 c1.32 1.04 3.32 1.88 4.92 2.4 c0.84 0.28 1.76 0.48 2.6 0.8 c0.48 0.16 1.12 0.32 1.76 0.52 c0.64 0.24 1.2 0.44 1.64 0.64 c0.44 0.24 0.72 0.52 0.72 0.84 c0 0.36 -0.28 0.6 -1 0.8 c-0.64 0.16 -1.4 0.16 -1.84 0.16 c-1 0 -2.28 -0.12 -3.04 -0.56 c-0.24 -0.12 -0.48 -0.32 -0.68 -0.52 s-0.32 -0.36 -0.32 -0.52 l-0.04 -1.4 l-7.24 0 l0 0.16 c0.04 0.44 0.04 0.88 0.04 1.36 z M214.48 28.36 c0 -6.16 5.24 -11.52 11.96 -11.52 c6.68 0 11.92 5.36 11.92 11.52 c0 0.84 -0.08 1.64 -0.24 2.4 l-16.68 0.04 c0.88 1.8 2.72 3.08 5 3.08 c1.56 0 2.96 -0.64 3.92 -1.6 l7.28 0 c-1.64 4.36 -6 7.64 -11.2 7.64 c-6.72 0 -11.96 -5.2 -11.96 -11.4 l0 -0.16 z M221.64 25.6 l-0.2 0.56 l10.12 0 l-0.32 -0.56 c-0.96 -1.6 -2.68 -2.72 -4.8 -2.72 s-3.88 1.12 -4.8 2.72 z"/></g>
			</g>
		</svg>
	