<svg width="20" height="23" viewBox="0 0 20 23" fill="none" xmlns="http://www.w3.org/2000/svg">
<path d="M1 5.25C1 4.55859 1.55859 4 2.25 4H17.25C17.9414 4 18.5 4.55859 18.5 5.25C18.5 5.94141 17.9414 6.5 17.25 6.5H2.25C1.55859 6.5 1 5.94141 1 5.25ZM1 11.5C1 10.8086 1.55859 10.25 2.25 10.25H17.25C17.9414 10.25 18.5 10.8086 18.5 11.5C18.5 12.1914 17.9414 12.75 17.25 12.75H2.25C1.55859 12.75 1 12.1914 1 11.5ZM18.5 17.75C18.5 18.4414 17.9414 19 17.25 19H2.25C1.55859 19 1 18.4414 1 17.75C1 17.0586 1.55859 16.5 2.25 16.5H17.25C17.9414 16.5 18.5 17.0586 18.5 17.75Z" fill="#B3B3B3"/>
</svg>
